# xmcd
#
# Track frame offsets: 
#        150
#        26937
#        46685
#        73267
#        93117
#        110992
#        127514
#        154172
#        172051
#        194446
#        215619
#        235660
#        249821
#
# Disc length: 3565 seconds
#
# Revision: 0
# Processed by: cddbd v1.5.2PL0 Copyright (c) Steve Scherf et al.
# Submitted via: ExactAudioCopy v0.99pb5
#
DISCID=af0deb0d
DTITLE=Dave Stewart - The Blackbird Diaries
DYEAR=2011
DGENRE=Blues
TTITLE0=So Long Ago
TTITLE1=Beast Called Fame
TTITLE2=Magic in the Blues
TTITLE3=All Messed Up
TTITLE4=Stevie Baby
TTITLE5=Cheaper Than Free
TTITLE6=The Gypsy Girl and Me
TTITLE7=One Way Ticket to the Moon
TTITLE8=Bulletproof Vest
TTITLE9=Worth the Waiting For
TTITLE10=The Well
TTITLE11=Country Wine
TTITLE12=Can't Get You Out of My Head
EXTD=
EXTT0=
EXTT1=
EXTT2=
EXTT3=
EXTT4=
EXTT5=
EXTT6=
EXTT7=
EXTT8=
EXTT9=
EXTT10=
EXTT11=
EXTT12=
PLAYORDER=
